<svg width="349" height="446" viewBox="0 0 349 446" fill="none" xmlns="http://www.w3.org/2000/svg">
<path d="M67.0705 379.577C65.1244 386.48 62.0859 394.517 60.2018 401.443C44.2139 402.798 29.3694 403.242 13.4217 405.02C10.9398 402.889 8.48353 400.722 6.05273 398.518C10.4989 379.333 15.1181 360.193 19.9105 341.097C18.2432 338.413 17.4122 337.03 15.7449 334.299C34.6957 336.387 53.6738 338.171 72.6792 339.65C74.3192 341.887 75.1829 342.991 76.8502 345.176C75.2831 350.544 73.7324 355.919 72.1982 361.299C64.6069 361.132 57.0157 360.956 49.4244 360.77C50.5177 356.672 51.6347 352.576 52.7754 348.482L41.4269 347.784C37.4909 362.461 33.6644 377.166 29.9471 391.9L41.4269 391.145C42.3999 387.504 43.3802 383.865 44.3679 380.228C51.9263 379.996 59.4939 379.779 67.0705 379.577Z" fill="url(#paint0_linear_2576_490)"/>
<path d="M77.861 386.972C75.5547 385.266 74.4187 384.398 72.0995 382.632C75.6536 370.089 79.2953 357.58 83.0244 345.104C81.7335 343.385 81.0537 342.521 79.737 340.764C94.6937 341.816 109.66 342.629 124.637 343.202C125.975 344.702 126.647 345.447 127.985 346.929C124.204 358.298 120.475 369.692 116.797 381.109C114.276 382.641 113.011 383.396 110.489 384.997C99.6147 385.533 88.7386 386.192 77.861 386.972ZM100.008 349.239C96.9326 358.995 93.9206 368.777 90.9717 378.585C93.9894 378.463 97.0014 378.344 100.008 378.228C102.936 368.652 105.92 359.094 108.958 349.554C105.971 349.454 102.988 349.348 100.008 349.239Z" fill="url(#paint1_linear_2576_490)"/>
<path d="M175.845 358.335C169.838 358.335 163.831 358.328 157.825 358.313C158.668 355.73 159.513 353.146 160.359 350.561C157.373 350.543 154.388 350.517 151.405 350.483C150.257 353.8 149.11 357.114 147.963 360.425C155.518 360.45 163.073 360.464 170.626 360.467C171.916 361.839 172.536 362.547 173.805 363.938C171.577 370.462 169.348 376.99 167.119 383.52C154.451 383.59 141.791 383.83 129.138 384.238C126.87 382.697 125.738 381.92 123.475 380.351C124.548 377.101 125.627 373.851 126.711 370.601C132.663 370.531 138.614 370.474 144.563 370.432L142.352 377.113L151.418 376.994C152.528 373.701 153.642 370.409 154.761 367.116C148.215 367.116 141.669 367.139 135.123 367.185C132.731 365.575 131.53 364.765 129.138 363.124C130.885 357.764 132.646 352.409 134.422 347.058C133.131 345.613 132.481 344.886 131.186 343.427C146.165 343.884 161.146 344.105 176.129 344.09L179.408 347.552L175.845 358.335Z" fill="url(#paint2_linear_2576_490)"/>
<path d="M174.393 383.504C178.449 371.507 182.496 359.507 186.535 347.504L183.287 344.051C190.842 343.981 198.397 343.855 205.95 343.672C207.266 345.076 207.925 345.775 209.237 347.188L209.779 368.637C214.615 360.167 219.38 351.65 224.073 343.086C231.138 342.8 238.201 342.464 245.26 342.08C246.577 343.539 247.231 344.271 248.548 345.739C244.555 358.873 240.458 371.971 236.259 385.032C230.307 384.748 224.356 384.5 218.406 384.286C221.705 374.225 224.96 364.138 228.169 354.025C222.653 364.105 217.027 374.116 211.289 384.058C207.784 383.951 204.277 383.861 200.769 383.788L200.124 360.364C197.513 368.126 194.887 375.882 192.245 383.632C186.296 383.565 180.345 383.523 174.393 383.504Z" fill="url(#paint3_linear_2576_490)"/>
<path d="M243.591 385.379C247.739 372.105 251.78 358.79 255.716 345.437C254.425 343.914 253.81 343.15 252.536 341.655C258.483 341.283 264.426 340.879 270.367 340.443C271.705 342.007 272.372 342.798 273.706 344.394C269.748 358.479 265.654 372.519 261.426 386.513C255.485 386.102 249.54 385.724 243.591 385.379Z" fill="url(#paint4_linear_2576_490)"/>
<path d="M325.526 378.937C323.64 385.624 320.696 394.115 318.871 400.825C303.38 402.139 288.998 401.865 273.546 403.587C271.142 401.523 268.762 399.424 266.407 397.288C270.714 378.7 275.19 360.156 279.833 341.654C278.218 339.053 277.413 337.713 275.797 335.068C294.158 337.09 312.08 337.368 330.494 338.802C332.083 340.969 333.386 343.489 335.001 345.606C333.483 350.807 331.98 356.014 330.494 361.227C323.139 361.066 315.784 360.895 308.429 360.715C309.488 356.744 310.57 352.775 311.676 348.809L300.68 348.133C296.867 362.353 293.159 376.601 289.558 390.876L300.68 390.145C301.623 386.617 302.573 383.091 303.53 379.567C310.853 379.342 318.185 379.132 325.526 378.937Z" fill="url(#paint5_linear_2576_490)"/>
<path d="M112.064 425.003L116.284 445.213H102.308L98.0013 424.95H95.3328L90.2068 445.213H75.1761L85.5276 400.889L82.8714 396.509H121.037L123.793 400.744L118.158 425.003H112.064ZM100.099 404.596L97.1698 416.824H104.865L107.707 404.596H100.099Z" fill="url(#paint6_linear_2576_490)"/>
<path d="M116.393 434.319L129.425 399.882L127.322 396.509H147.578L149.855 399.882L152.922 434.319H141.955L140.99 423.154H132.473L128.238 434.319H116.393ZM134.904 416.798H140.421L139.36 405.029L134.904 416.798Z" fill="url(#paint7_linear_2576_490)"/>
<path d="M154.257 434.319L155.702 428.88L152.5 399.954L150.358 396.509H185.709L187.909 399.687L186.075 404.134H169.201L166.108 406.244L164.312 412.246H179.044L178.316 415.424L174.603 418.602H164.312L167.795 434.35L154.257 434.319Z" fill="url(#paint8_linear_2576_490)"/>
<path d="M192.046 434.278L189.514 428.88L194.692 404.147H185.01L186.788 400.95L184.733 396.509H217.318L219.325 399.687L218.196 404.147H206.634L199.511 434.319L192.046 434.278Z" fill="url(#paint9_linear_2576_490)"/>
<path d="M256.878 413.997H241.658L243.793 404.499H236.239L233.313 416.608H252.496L255.187 420.872L249.533 444.894H217.439L212.65 440.105L215.39 428.717H230.474L228.598 436.76H236.264L239.078 424.742H222.5L217.439 419.901L221.908 400.72L219.167 396.509H257.125L259.915 400.773L256.878 413.997Z" fill="url(#paint10_linear_2576_490)"/>
<path d="M164.054 0.409248C181.2 -1.03465 197.867 1.4695 214.38 5.91738C245.569 14.4592 273.77 33.6085 293.517 59.1387C307.463 76.9303 317.17 97.6605 321.899 119.757C326.242 137.723 326.762 156.288 324.27 174.568C319.116 164.951 313.455 155.59 308.172 146.039C307.222 143.959 307.444 141.294 307.131 139.047C305.169 116.727 296.951 95.6292 284.562 77.0659C275.052 63.3758 263.221 51.4499 249.602 41.8257C236.357 32.7622 221.659 26.0254 206.142 21.9061C185.248 16.7406 163.416 16.6766 142.493 21.7194C126.698 25.8095 111.737 32.6136 98.2784 41.8273C80.3886 54.5545 64.9725 71.4419 55.0351 91.0755C47.1296 106.276 42.0343 122.849 40.6695 139.945C40.4269 141.899 40.5787 144.241 39.709 146.041C34.4267 155.587 28.7653 164.948 23.6097 174.569C21.0872 156.092 21.6685 137.321 26.1169 119.172C33.8099 83.2049 55.5859 50.5554 85.4546 29.1355C108.368 12.2583 135.78 2.83263 164.054 0.409248Z" fill="url(#paint11_linear_2576_490)"/>
<path d="M51.3143 220.982C65.2248 252.041 91.3432 277.592 122.814 290.636C143.973 299.8 167.837 302.79 190.659 299.8C210.939 297.412 230.744 289.286 247.732 278.102C268.568 263.777 285.587 244.075 295.884 220.922C299.053 226.586 301.491 232.715 304.422 238.512C304.72 239.41 305.751 240.657 305.29 241.58C284.445 278.677 247.247 306.343 205.485 315.05C188.233 319.246 170.32 319.988 152.779 317.232C139.641 315.06 126.524 311.683 114.277 306.383C85.9397 294.169 61.957 273.692 45.4709 247.633C44.2934 245.437 42.4636 243.328 41.7152 240.959C43.717 236.219 46.1079 231.619 48.2459 226.935C49.272 224.976 49.9495 222.714 51.3143 220.982Z" fill="url(#paint12_linear_2576_490)"/>
<path d="M183.67 99.5533C177.491 99.399 171.303 99.5429 165.124 99.4919C163.224 105.861 161.361 111.808 159.344 118.141C158.851 119.172 158.851 119.429 158.111 121.234C159.591 123.038 159.275 122.437 160.824 124.327C162.057 125.616 162.057 125.616 163.536 126.904C163.595 134.862 163.792 142.444 163.695 150.401C162.104 152.869 159.621 154.798 157.664 156.979C157.605 169.772 157.698 182.56 157.619 195.353L158.212 195.087C161.81 192.376 161.563 192.376 163.695 190.829C164.769 203.717 164.769 203.46 167.669 218.481C170.074 226.996 172.193 235.608 174.416 244.173C176.667 235.618 178.768 227 181.177 218.49C183.017 207.068 182.77 207.326 185.153 190.829C186.962 192.376 187.209 192.376 190.548 195.067L191.208 195.414C191.184 182.594 191.228 169.787 191.184 156.973C189.226 154.79 186.744 152.869 185.153 150.405C185.055 142.437 185.094 134.459 185.153 126.496C188.442 123.554 188.935 122.78 190.415 121.234C190.168 119.945 189.921 119.429 189.675 118.914C189.344 117.883 189.513 118.398 189.428 118.141C187.356 111.827 185.706 105.85 183.67 99.5533Z" fill="url(#paint13_linear_2576_490)"/>
<path d="M42.8388 156.815L65.84 142.19L46.3174 179.973L49.6565 191.189L12.3315 260.823L0.275488 247.827L42.8388 156.815Z" fill="url(#paint14_linear_2576_490)"/>
<path d="M306.266 156.815L283.576 142.19L302.835 179.973L299.541 191.189L336.362 260.823L348.255 247.827L306.266 156.815Z" fill="url(#paint15_linear_2576_490)"/>
<path d="M50.3959 181.311L59.9451 162.61L108.089 135.952V139.931L121.219 134.36L112.068 156.244L100.529 166.191V174.547L88.9906 178.128L84.6139 192.849L67.5049 217.12L60.343 205.979L50.3959 181.311Z" fill="url(#paint16_linear_2576_490)"/>
<path d="M298.292 181.267L288.711 162.584L240.41 135.95V139.926L227.237 134.36L236.418 156.223L247.994 166.161V174.509L259.571 178.087L263.962 192.794L281.127 217.043L288.312 205.912L298.292 181.267Z" fill="url(#paint17_linear_2576_490)"/>
<path d="M115.136 116.281L83.7036 144.531L111.953 128.217V132.594L125.481 127.422L124.686 144.531L135.429 143.337L137.418 140.552L135.429 131.4L141.795 123.841H148.559L138.612 134.981L148.559 175.963H151.742V156.467L158.108 150.101V128.217L152.935 122.647L160.893 97.5802L158.108 92.0098V79.6754L155.323 76.0945L152.935 110.312L115.136 116.281Z" fill="url(#paint18_linear_2576_490)"/>
<path d="M233.661 116.251L264.7 144.39L236.804 128.141V132.5L223.446 127.348L224.231 144.39L213.623 143.201L211.659 140.427L213.623 131.311L207.337 123.781H200.657L210.48 134.878L200.657 175.7H197.514V156.28L191.228 149.939V128.141L196.335 122.592L188.477 97.6239L191.228 92.0753V79.7893L193.978 76.2224L196.335 110.306L233.661 116.251Z" fill="url(#paint19_linear_2576_490)"/>
<path d="M148.853 106.239L118.216 111.014L121.001 89.9257L113.839 95.496L101.903 92.7108L78.0295 107.433L86.3851 89.9257L108.667 70.4293L151.24 66.8484L148.853 106.239Z" fill="url(#paint20_linear_2576_490)"/>
<path d="M201.116 106.358L230.851 111.106L228.148 90.1332L235.099 95.6733L246.684 92.9032L269.854 107.545L261.745 90.1332L240.119 70.7429L198.799 67.1814L201.116 106.358Z" fill="url(#paint21_linear_2576_490)"/>
<path d="M151.734 181.513H149.347L141.787 203.711L130.248 222.014L128.657 230.369L107.967 238.725L111.15 233.553L88.0724 247.876L82.8999 261.404L108.762 265.781L107.967 262.2H111.15L116.322 267.771L121.097 268.566L152.132 239.919L156.324 209.289L160.885 212.28L158.896 201.538L152.927 205.119L151.734 181.513Z" fill="url(#paint22_linear_2576_490)"/>
<path d="M197.57 182.161H199.943L207.457 204.233L218.926 222.432L220.508 230.74L241.073 239.048L237.909 233.905L260.847 248.147L265.989 261.598L240.282 265.95L241.073 262.389H237.909L232.768 267.928L228.022 268.719L197.175 240.235L193.007 209.779L188.474 212.754L190.451 202.072L196.384 205.632L197.57 182.161Z" fill="url(#paint23_linear_2576_490)"/>
<defs>
<linearGradient id="paint0_linear_2576_490" x1="41.4515" y1="334.299" x2="41.4515" y2="405.02" gradientUnits="userSpaceOnUse">
<stop stop-color="white"/>
<stop offset="1" stop-color="#C1CED6"/>
</linearGradient>
<linearGradient id="paint1_linear_2576_490" x1="100.042" y1="340.764" x2="100.042" y2="386.972" gradientUnits="userSpaceOnUse">
<stop stop-color="white"/>
<stop offset="1" stop-color="#C1CED6"/>
</linearGradient>
<linearGradient id="paint2_linear_2576_490" x1="151.441" y1="343.427" x2="151.441" y2="384.238" gradientUnits="userSpaceOnUse">
<stop stop-color="white"/>
<stop offset="1" stop-color="#C1CED6"/>
</linearGradient>
<linearGradient id="paint3_linear_2576_490" x1="211.47" y1="342.08" x2="211.47" y2="385.032" gradientUnits="userSpaceOnUse">
<stop stop-color="white"/>
<stop offset="1" stop-color="#C1CED6"/>
</linearGradient>
<linearGradient id="paint4_linear_2576_490" x1="258.648" y1="340.443" x2="258.648" y2="386.513" gradientUnits="userSpaceOnUse">
<stop stop-color="white"/>
<stop offset="1" stop-color="#C1CED6"/>
</linearGradient>
<linearGradient id="paint5_linear_2576_490" x1="300.704" y1="335.068" x2="300.704" y2="403.587" gradientUnits="userSpaceOnUse">
<stop stop-color="white"/>
<stop offset="1" stop-color="#C1CED6"/>
</linearGradient>
<linearGradient id="paint6_linear_2576_490" x1="99.4845" y1="396.509" x2="99.4845" y2="445.213" gradientUnits="userSpaceOnUse">
<stop stop-color="white"/>
<stop offset="1" stop-color="#C1CED6"/>
</linearGradient>
<linearGradient id="paint7_linear_2576_490" x1="134.658" y1="396.509" x2="134.658" y2="434.319" gradientUnits="userSpaceOnUse">
<stop stop-color="white"/>
<stop offset="1" stop-color="#C1CED6"/>
</linearGradient>
<linearGradient id="paint8_linear_2576_490" x1="169.134" y1="396.509" x2="169.134" y2="434.35" gradientUnits="userSpaceOnUse">
<stop stop-color="white"/>
<stop offset="1" stop-color="#C1CED6"/>
</linearGradient>
<linearGradient id="paint9_linear_2576_490" x1="202.029" y1="396.509" x2="202.029" y2="434.319" gradientUnits="userSpaceOnUse">
<stop stop-color="white"/>
<stop offset="1" stop-color="#C1CED6"/>
</linearGradient>
<linearGradient id="paint10_linear_2576_490" x1="236.282" y1="396.509" x2="236.282" y2="444.894" gradientUnits="userSpaceOnUse">
<stop stop-color="white"/>
<stop offset="1" stop-color="#C1CED6"/>
</linearGradient>
<linearGradient id="paint11_linear_2576_490" x1="173.942" y1="0" x2="173.942" y2="174.569" gradientUnits="userSpaceOnUse">
<stop stop-color="white"/>
<stop offset="1" stop-color="#C1CED6"/>
</linearGradient>
<linearGradient id="paint12_linear_2576_490" x1="173.561" y1="220.922" x2="173.561" y2="318.863" gradientUnits="userSpaceOnUse">
<stop stop-color="white"/>
<stop offset="1" stop-color="#C1CED6"/>
</linearGradient>
<linearGradient id="paint13_linear_2576_490" x1="174.413" y1="99.4795" x2="174.413" y2="244.173" gradientUnits="userSpaceOnUse">
<stop stop-color="white"/>
<stop offset="1" stop-color="#D0EBFC"/>
</linearGradient>
<linearGradient id="paint14_linear_2576_490" x1="34.2157" y1="141.505" x2="31.6244" y2="261.24" gradientUnits="userSpaceOnUse">
<stop stop-color="#1A8CDE"/>
<stop offset="1" stop-color="#075C9A"/>
</linearGradient>
<linearGradient id="paint15_linear_2576_490" x1="314.773" y1="141.505" x2="317.4" y2="261.239" gradientUnits="userSpaceOnUse">
<stop stop-color="#1A8CDE"/>
<stop offset="1" stop-color="#075C9A"/>
</linearGradient>
<linearGradient id="paint16_linear_2576_490" x1="85.8075" y1="134.36" x2="85.8075" y2="217.12" gradientUnits="userSpaceOnUse">
<stop stop-color="#1A8CDE"/>
<stop offset="1" stop-color="#075C9A"/>
</linearGradient>
<linearGradient id="paint17_linear_2576_490" x1="262.764" y1="134.36" x2="262.764" y2="217.043" gradientUnits="userSpaceOnUse">
<stop stop-color="#1A8CDE"/>
<stop offset="1" stop-color="#075C9A"/>
</linearGradient>
<linearGradient id="paint18_linear_2576_490" x1="122.298" y1="76.0945" x2="122.298" y2="175.963" gradientUnits="userSpaceOnUse">
<stop stop-color="#1A8CDE"/>
<stop offset="1" stop-color="#075C9A"/>
</linearGradient>
<linearGradient id="paint19_linear_2576_490" x1="226.589" y1="76.2224" x2="226.589" y2="175.7" gradientUnits="userSpaceOnUse">
<stop stop-color="#1A8CDE"/>
<stop offset="1" stop-color="#075C9A"/>
</linearGradient>
<linearGradient id="paint20_linear_2576_490" x1="114.635" y1="66.8484" x2="114.635" y2="111.014" gradientUnits="userSpaceOnUse">
<stop stop-color="#1A8CDE"/>
<stop offset="1" stop-color="#075C9A"/>
</linearGradient>
<linearGradient id="paint21_linear_2576_490" x1="234.327" y1="67.1814" x2="234.327" y2="111.106" gradientUnits="userSpaceOnUse">
<stop stop-color="#1A8CDE"/>
<stop offset="1" stop-color="#075C9A"/>
</linearGradient>
<linearGradient id="paint22_linear_2576_490" x1="121.893" y1="181.513" x2="121.893" y2="268.566" gradientUnits="userSpaceOnUse">
<stop stop-color="#1A8CDE"/>
<stop offset="1" stop-color="#075C9A"/>
</linearGradient>
<linearGradient id="paint23_linear_2576_490" x1="227.231" y1="182.161" x2="227.231" y2="268.719" gradientUnits="userSpaceOnUse">
<stop stop-color="#1A8CDE"/>
<stop offset="1" stop-color="#075C9A"/>
</linearGradient>
</defs>
</svg>
