<svg width="34" height="35" viewBox="0 0 34 35" fill="none" xmlns="http://www.w3.org/2000/svg">
<path d="M33.2423 18.1599C33.2423 17.0482 33.1215 16.2023 32.9765 15.3564H17.0018V21.1566H26.5963C26.3546 22.655 25.3396 24.9992 23.092 26.6184V30.5819H28.2155C31.4056 27.6576 33.2423 23.3075 33.2423 18.1599Z" fill="#4285F4"/>
<path d="M17.0018 34.6905C21.5695 34.6905 25.3879 33.1679 28.1913 30.6062L23.0678 26.6427C21.6178 27.6819 19.6361 28.4553 17.0018 28.4553C12.4342 28.4553 8.59158 25.4585 7.14154 21.3018H1.89722V25.386C4.67647 30.8962 10.38 34.6905 17.0018 34.6905Z" fill="#34A853"/>
<path d="M7.14159 21.2776C6.77908 20.1901 6.51324 19.0059 6.51324 17.7734C6.51324 16.5408 6.75492 15.3566 7.14159 14.2691V10.1848H1.89727C0.737236 12.4807 0.0847168 15.0425 0.0847168 17.7734C0.0847168 20.5043 0.737236 23.066 1.89727 25.3619L7.14159 21.2776Z" fill="#FBBC05"/>
<path d="M17.0018 7.09163C20.2886 7.09163 22.4878 8.49334 23.7445 9.70171L28.3363 5.27908C25.3879 2.52399 21.5695 0.856445 17.0018 0.856445C10.38 0.856445 4.67647 4.65073 1.89722 10.1851L7.14154 14.2693C8.59158 10.1126 12.4342 7.09163 17.0018 7.09163Z" fill="#EA4335"/>
</svg>
