<svg width="70" height="34" viewBox="0 0 70 34" fill="none" xmlns="http://www.w3.org/2000/svg">
<path d="M52.9987 0.939453C49.0907 0.939453 44.823 2.92325 40.3147 6.83429C38.1796 8.68695 36.3289 10.6695 34.9399 12.2599C34.9424 12.2624 34.9448 12.2648 34.9472 12.2684C34.9509 12.2636 34.9533 12.2611 34.9533 12.2611C34.9533 12.2611 37.1443 14.6227 39.5552 17.1503C40.853 15.6236 42.728 13.54 44.8838 11.6705C48.8914 8.19251 51.5089 7.46347 52.9987 7.46347C58.6202 7.46347 63.1929 11.8774 63.1929 17.3018C63.1929 22.6962 58.6177 27.1065 52.9915 27.1402C52.735 27.1402 52.4057 27.1089 51.9999 27.0199C53.6391 27.7225 55.4012 28.2277 57.0793 28.2277C67.3828 28.2277 69.3964 21.5714 69.5337 21.0998C69.8387 19.8799 70.0003 18.6095 70.0003 17.303C69.9991 8.27913 62.3726 0.939453 52.9987 0.939453Z" fill="url(#paint0_linear_824_56)"/>
<path d="M17.0016 33.6672C20.9096 33.6672 25.1773 31.6834 29.6856 27.7724C31.8207 25.9197 33.6714 23.9371 35.0604 22.3467C35.0579 22.3443 35.0555 22.3419 35.0531 22.3383C35.0494 22.3431 35.047 22.3455 35.047 22.3455C35.047 22.3455 32.856 19.984 30.4451 17.4564C29.1473 18.983 27.2723 21.0667 25.1166 22.9362C21.1089 26.4141 18.4914 27.1432 17.0016 27.1432C11.3802 27.1432 6.80744 22.7293 6.80744 17.3048C6.80744 11.9104 11.3826 7.50013 17.0089 7.46644C17.2653 7.46644 17.5946 7.49772 18.0005 7.58675C16.3612 6.88418 14.5992 6.37891 12.921 6.37891C2.6175 6.37891 0.603944 13.0353 0.466629 13.5069C0.161618 14.7267 0 15.9971 0 17.3036C0.00121518 26.3275 7.62768 33.6672 17.0016 33.6672Z" fill="url(#paint1_linear_824_56)"/>
<path d="M57.0551 28.0617C51.78 27.933 46.2971 23.815 45.1779 22.7913C42.2882 20.1458 35.6193 12.983 35.0955 12.4212C30.2069 7.00272 23.5829 0.939453 17.0003 0.939453H16.9918H16.9833C8.98132 0.979153 2.25652 6.34346 0.467773 13.5039C0.605089 13.0323 3.23352 6.24962 12.9136 6.48542C18.1887 6.61414 23.6984 10.7874 24.8163 11.8112C27.706 14.4567 34.3774 21.6207 34.8987 22.1825C39.7874 27.5998 46.4113 33.6618 52.9939 33.6618H53.0024H53.0109C61.0129 33.6221 67.7377 28.2578 69.5265 21.0974C69.3904 21.569 66.7352 28.2975 57.0551 28.0617Z" fill="#29ABE2"/>
<defs>
<linearGradient id="paint0_linear_824_56" x1="44.1491" y1="3.09704" x2="67.0228" y2="27.0227" gradientUnits="userSpaceOnUse">
<stop offset="0.21" stop-color="#F15A24"/>
<stop offset="0.6841" stop-color="#FBB03B"/>
</linearGradient>
<linearGradient id="paint1_linear_824_56" x1="25.8512" y1="31.5096" x2="2.97751" y2="7.58397" gradientUnits="userSpaceOnUse">
<stop offset="0.21" stop-color="#ED1E79"/>
<stop offset="0.8929" stop-color="#522785"/>
</linearGradient>
</defs>
</svg>
