<svg width="76" height="28" viewBox="0 0 76 28" fill="none" xmlns="http://www.w3.org/2000/svg">
<path fill-rule="evenodd" clip-rule="evenodd" d="M57.0795 12.5905C57.0795 12.5905 56.7258 13.6508 56.3595 15.1872L56.2269 16.5771C55.848 20.6856 57.9384 21.8659 62.3718 21.8792L61.3614 27.4918L61.2856 27.8975C60.5151 27.9616 59.7004 27.9997 58.8478 27.9997C49.4504 27.9997 45.8948 23.3077 47.7642 14.6349L47.9095 13.9746C49.6588 5.85979 55.8417 0.761475 63.7486 0.761475C64.6075 0.761475 65.4033 0.805918 66.1422 0.89544C66.1422 0.89544 62.4009 3.68079 61.2774 4.58998C59.024 6.41471 58.2794 8.81276 57.0858 12.5905H57.0795Z" fill="url(#paint0_linear_742_58)"/>
<path fill-rule="evenodd" clip-rule="evenodd" d="M67.287 13.1303H62.8201C60.7234 13.1303 58.717 15.1874 58.717 15.1874C59.0833 13.651 59.4369 12.5907 59.4369 12.5907H59.4432C60.6369 8.81295 61.9821 6.4003 64.8745 6.47712C68.8406 6.58442 68.1143 9.30183 67.287 13.1303ZM66.106 0.762939C58.1991 0.762939 52.0163 5.86062 50.2669 13.9748L50.1216 14.6351C48.2523 23.3079 51.8079 27.9999 61.2052 27.9999C66.0808 27.9999 69.6174 26.8253 71.872 25.6571L74.2972 19.861C72.0678 20.6731 67.9123 21.8794 64.7861 21.8794C60.3148 21.8794 58.2054 20.7054 58.5843 16.5785H74.9098L75.3961 14.3309C77.2591 5.70888 74.9856 0.762939 66.106 0.762939Z" fill="white"/>
<path fill-rule="evenodd" clip-rule="evenodd" d="M17.4875 0.74293L12.6814 27.4917H5.07131L9.08793 8.88183C9.27108 7.96185 4.2503 8.85072 0 12.2475L0.669438 8.81897C2.74091 5.38983 4.75553 2.73654 9.29634 0.945466C12.1636 -0.191022 15.656 -0.355463 17.4875 0.74293Z" fill="url(#paint1_linear_742_58)"/>
<mask id="mask0_742_58" style="mask-type:luminance" maskUnits="userSpaceOnUse" x="2" y="0" width="46" height="28">
<path d="M2.92871 0H47.6185V27.4907H2.92871V0Z" fill="white"/>
</mask>
<g mask="url(#mask0_742_58)">
<path fill-rule="evenodd" clip-rule="evenodd" d="M44.1143 22.7914L47.3377 7.85385C48.4606 2.65077 46.1466 0.763817 41.6292 0.763817C38.4462 0.763817 36.3103 2.87679 34.0999 5.39294L34.0626 5.17136C33.8441 2.99298 31.5219 0.763817 28.493 0.763817C25.053 0.763817 23.2638 2.83299 21.534 4.96755L21.1627 5.49833L21.1387 5.48437L21.5214 3.83678C22.6992 -0.23807 16.7002 -0.827265 12.2194 0.944766C7.68109 2.73902 5.66772 5.39357 3.59815 8.82208L2.92871 12.2481C7.17269 8.85002 12.196 7.96432 12.0122 8.88557L7.99749 27.491H16.776L20.9037 8.36368C21.9496 7.73194 22.7561 7.44751 23.7065 7.49639C25.3473 7.58084 25.3858 8.26146 24.9456 10.3021L21.2359 27.491H29.9639L33.9597 8.97573C33.9925 8.82272 34.0285 8.51669 34.0399 8.36368C35.1482 7.67226 35.7356 7.50846 36.1972 7.49639C38.3129 7.4437 38.5226 8.26146 38.0818 10.3021L34.3727 27.491H39.1207H43.1H45.7203C45.7203 27.491 43.3078 26.5284 44.1143 22.7914Z" fill="white"/>
</g>
<defs>
<linearGradient id="paint0_linear_742_58" x1="1442.26" y1="2724.59" x2="-87.7324" y2="439.789" gradientUnits="userSpaceOnUse">
<stop stop-color="#02A4EF"/>
<stop offset="1" stop-color="#2DFFC4"/>
</linearGradient>
<linearGradient id="paint1_linear_742_58" x1="1228.18" y1="2749.12" x2="-186.669" y2="449.405" gradientUnits="userSpaceOnUse">
<stop stop-color="#02A4EF"/>
<stop offset="1" stop-color="#2DFFC4"/>
</linearGradient>
</defs>
</svg>
