<svg width="48" height="44" viewBox="0 0 48 44" fill="none" xmlns="http://www.w3.org/2000/svg">
<path d="M44.8016 1L26.8145 14.3593L30.1407 6.47749L44.8016 1Z" fill="#E2761B" stroke="#E2761B" stroke-width="0.180775" stroke-linecap="round" stroke-linejoin="round"/>
<path d="M3.27705 1L21.1196 14.4858L17.956 6.47749L3.27705 1ZM38.3294 31.9668L33.5388 39.3063L43.7888 42.1264L46.7354 32.1295L38.3294 31.9668ZM1.37891 32.1295L4.30747 42.1264L14.5574 39.3063L9.76688 31.9668L1.37891 32.1295Z" fill="#E4761B" stroke="#E4761B" stroke-width="0.180775" stroke-linecap="round" stroke-linejoin="round"/>
<path d="M13.9793 19.5656L11.123 23.8862L21.3007 24.3381L20.9391 13.4012L13.9793 19.5656ZM34.0996 19.5656L27.0493 13.2747L26.8143 24.3381L36.9739 23.8862L34.0996 19.5656ZM14.5578 39.3063L20.668 36.3235L15.3893 32.2018L14.5578 39.3063ZM27.4109 36.3235L33.5392 39.3063L32.6895 32.2018L27.4109 36.3235Z" fill="#E4761B" stroke="#E4761B" stroke-width="0.180775" stroke-linecap="round" stroke-linejoin="round"/>
<path d="M33.54 39.3063L27.4117 36.3235L27.8998 40.3186L27.8456 41.9998L33.54 39.3063ZM14.5586 39.3063L20.253 41.9998L20.2169 40.3186L20.6688 36.3235L14.5586 39.3063Z" fill="#D7C1B3" stroke="#D7C1B3" stroke-width="0.180775" stroke-linecap="round" stroke-linejoin="round"/>
<path d="M20.344 29.5625L15.2461 28.062L18.8435 26.417L20.344 29.5625ZM27.7377 29.5625L29.2381 26.417L32.8536 28.062L27.7377 29.5625Z" fill="#233447" stroke="#233447" stroke-width="0.180775" stroke-linecap="round" stroke-linejoin="round"/>
<path d="M14.5581 39.3061L15.4258 31.9666L9.76758 32.1293L14.5581 39.3061ZM32.6718 31.9666L33.5395 39.3061L38.3301 32.1293L32.6718 31.9666ZM36.9743 23.886L26.8147 24.3379L27.7547 29.5623L29.2552 26.4168L32.8707 28.0619L36.9743 23.886ZM15.2451 28.0619L18.8606 26.4168L20.3429 29.5623L21.301 24.3379L11.1234 23.886L15.2451 28.0619Z" fill="#CD6116" stroke="#CD6116" stroke-width="0.180775" stroke-linecap="round" stroke-linejoin="round"/>
<path d="M11.123 23.886L15.3893 32.2017L15.2447 28.0619L11.123 23.886ZM32.8703 28.0619L32.6895 32.2017L36.9739 23.886L32.8703 28.0619ZM21.3007 24.3379L20.3426 29.5623L21.5357 35.7268L21.8069 27.61L21.3007 24.3379ZM26.8143 24.3379L26.3262 27.5919L26.5432 35.7268L27.7544 29.5623L26.8143 24.3379Z" fill="#E4751F" stroke="#E4751F" stroke-width="0.180775" stroke-linecap="round" stroke-linejoin="round"/>
<path d="M27.7557 29.5624L26.5446 35.7269L27.4123 36.3234L32.6909 32.2018L32.8717 28.062L27.7557 29.5624ZM15.2461 28.062L15.3907 32.2018L20.6694 36.3234L21.5371 35.7269L20.344 29.5624L15.2461 28.062Z" fill="#F6851B" stroke="#F6851B" stroke-width="0.180775" stroke-linecap="round" stroke-linejoin="round"/>
<path d="M27.8456 41.9997L27.8998 40.3185L27.4479 39.9208H20.6326L20.2169 40.3185L20.253 41.9997L14.5586 39.3062L16.5471 40.9331L20.5784 43.7351H27.5021L31.5515 40.9331L33.54 39.3062L27.8456 41.9997Z" fill="#C0AD9E" stroke="#C0AD9E" stroke-width="0.180775" stroke-linecap="round" stroke-linejoin="round"/>
<path d="M27.4117 36.3234L26.5439 35.7268H21.5365L20.6687 36.3234L20.2168 40.3185L20.6326 39.9208H27.4478L27.8997 40.3185L27.4117 36.3234Z" fill="#161616" stroke="#161616" stroke-width="0.180775" stroke-linecap="round" stroke-linejoin="round"/>
<path d="M45.5611 15.227L47.0977 7.85138L44.8019 1L27.4113 13.9074L34.1 19.5656L43.5545 22.3315L45.6515 19.891L44.7476 19.2402L46.1938 17.9206L45.073 17.0528L46.5192 15.9501L45.5611 15.227ZM1 7.85138L2.53659 15.227L1.5604 15.9501L3.00661 17.0528L1.90388 17.9206L3.35008 19.2402L2.4462 19.891L4.52512 22.3315L13.9797 19.5656L20.6684 13.9074L3.27777 1L1 7.85138Z" fill="#763D16" stroke="#763D16" stroke-width="0.180775" stroke-linecap="round" stroke-linejoin="round"/>
<path d="M43.5538 22.3315L34.0992 19.5657L36.9736 23.8862L32.6892 32.2019L38.3294 32.1296H46.7354L43.5538 22.3315ZM13.9789 19.5657L4.5244 22.3315L1.37891 32.1296H9.76688L15.389 32.2019L11.1227 23.8862L13.9789 19.5657ZM26.814 24.3381L27.4105 13.9074L30.1583 6.47754H17.956L20.6676 13.9074L21.3003 24.3381L21.5173 27.6282L21.5354 35.727H26.5428L26.579 27.6282L26.814 24.3381Z" fill="#F6851B" stroke="#F6851B" stroke-width="0.180775" stroke-linecap="round" stroke-linejoin="round"/>
</svg>
