<svg width="182" height="43" viewBox="0 0 182 43" fill="none" xmlns="http://www.w3.org/2000/svg">
<path d="M107.632 31.1738C107.358 31.1738 107.117 30.9922 107.041 30.7286L102.009 13.2137C101.896 12.8205 102.191 12.4287 102.6 12.4287H105.645C105.93 12.4287 106.177 12.6239 106.243 12.9007L109.227 25.3764C109.238 25.4215 109.278 25.4533 109.325 25.4533C109.37 25.4533 109.41 25.4226 109.422 25.3787L112.718 12.8869C112.789 12.6169 113.033 12.4287 113.313 12.4287H116.086C116.366 12.4287 116.61 12.6172 116.681 12.8876L119.968 25.4017C119.98 25.4483 120.022 25.4807 120.07 25.4807C120.119 25.4807 120.162 25.4471 120.173 25.3994L123.156 12.901C123.223 12.6241 123.47 12.4287 123.755 12.4287H126.799C127.208 12.4287 127.503 12.8205 127.39 13.2137L122.359 30.7286C122.283 30.9922 122.042 31.1738 121.767 31.1738H118.814C118.54 31.1738 118.3 30.9936 118.223 30.7314L114.789 18.9886C114.777 18.9468 114.739 18.9181 114.695 18.9181C114.652 18.9181 114.613 18.9469 114.601 18.9887L111.176 30.731C111.1 30.9934 110.859 31.1738 110.586 31.1738H107.632Z" fill="black"/>
<path d="M132.181 31.4393C131.28 31.4393 130.478 31.2837 129.773 30.9725C129.069 30.6552 128.511 30.1884 128.101 29.5721C127.696 28.9497 127.494 28.1747 127.494 27.2472C127.494 26.4662 127.638 25.8102 127.926 25.2794C128.214 24.7485 128.606 24.3214 129.102 23.998C129.599 23.6746 130.162 23.4305 130.793 23.2657C131.43 23.101 132.098 22.985 132.797 22.9179C133.617 22.8325 134.279 22.7532 134.781 22.68C135.284 22.6006 135.648 22.4847 135.875 22.3321C136.102 22.1796 136.215 21.9538 136.215 21.6548V21.5999C136.215 21.0202 136.031 20.5717 135.664 20.2544C135.302 19.9371 134.788 19.7785 134.12 19.7785C133.415 19.7785 132.855 19.9341 132.438 20.2453C132.168 20.4428 131.958 20.6735 131.806 20.9375C131.661 21.1908 131.402 21.3816 131.111 21.3581L128.69 21.1622C128.319 21.1323 128.057 20.7811 128.181 20.4309C128.385 19.8563 128.683 19.3429 129.075 18.8907C129.614 18.2622 130.309 17.7801 131.161 17.4445C132.018 17.1028 133.011 16.9319 134.138 16.9319C134.922 16.9319 135.673 17.0235 136.39 17.2065C137.113 17.3896 137.753 17.6733 138.31 18.0577C138.874 18.4422 139.318 18.9364 139.643 19.5405C139.967 20.1385 140.13 20.8555 140.13 21.6914V30.5587C140.13 30.8984 139.854 31.1738 139.515 31.1738H137.032C136.693 31.1738 136.417 30.8984 136.417 30.5587V29.2928C136.417 29.255 136.387 29.2243 136.349 29.2243C136.323 29.2243 136.3 29.2386 136.288 29.2613C136.063 29.6854 135.766 30.0605 135.397 30.3867C135.017 30.7162 134.561 30.9755 134.028 31.1647C133.495 31.3477 132.879 31.4393 132.181 31.4393ZM133.302 28.7483C133.878 28.7483 134.386 28.6354 134.827 28.4097C135.269 28.1778 135.615 27.8666 135.866 27.4761C136.117 27.0855 136.243 26.6432 136.243 26.1489V25.2097C136.243 24.9714 135.965 24.8055 135.737 24.8766C135.529 24.9377 135.293 24.9956 135.03 25.0506C134.766 25.0994 134.503 25.1451 134.239 25.1878C133.976 25.2245 133.737 25.258 133.522 25.2885C133.063 25.3556 132.662 25.4624 132.319 25.6089C131.976 25.7553 131.709 25.9536 131.519 26.2038C131.329 26.4479 131.234 26.753 131.234 27.1191C131.234 27.65 131.427 28.0558 131.813 28.3364C132.205 28.611 132.702 28.7483 133.302 28.7483Z" fill="black"/>
<path d="M146.467 12.4287C146.806 12.4287 147.082 12.7041 147.082 13.0438V30.5587C147.082 30.8984 146.806 31.1738 146.467 31.1738H143.782C143.442 31.1738 143.167 30.8984 143.167 30.5587V13.0438C143.167 12.7041 143.442 12.4287 143.782 12.4287H146.467Z" fill="black"/>
<path d="M153.517 12.4287C153.857 12.4287 154.133 12.7041 154.133 13.0438V30.5587C154.133 30.8984 153.857 31.1738 153.517 31.1738H150.833C150.493 31.1738 150.218 30.8984 150.218 30.5587V13.0438C150.218 12.7041 150.493 12.4287 150.833 12.4287H153.517Z" fill="black"/>
<path d="M163.701 31.4484C162.249 31.4484 161 31.1555 159.952 30.5697C158.91 29.9779 158.108 29.1419 157.544 28.0619C156.981 26.9757 156.699 25.6913 156.699 24.2085C156.699 22.7623 156.981 21.4931 157.544 20.4009C158.108 19.3086 158.901 18.4574 159.924 17.8472C160.954 17.237 162.16 16.9319 163.545 16.9319C164.476 16.9319 165.343 17.0814 166.146 17.3804C166.954 17.6733 167.659 18.1157 168.259 18.7076C168.866 19.2995 169.338 20.0439 169.675 20.9409C170.012 21.8318 170.18 22.8752 170.18 24.0712V24.527C170.18 24.8667 169.905 25.1421 169.565 25.1421H158.876C158.536 25.1421 158.261 24.8667 158.261 24.527V23.3408C158.261 23.0011 158.536 22.7257 158.876 22.7257H165.88C166.22 22.7257 166.503 22.4479 166.442 22.1137C166.384 21.7958 166.279 21.5025 166.127 21.2338C165.882 20.8006 165.542 20.4619 165.107 20.2178C164.678 19.9676 164.179 19.8426 163.609 19.8426C163.015 19.8426 162.488 19.9798 162.029 20.2544C161.575 20.5229 161.22 20.886 160.963 21.3436C160.705 21.7952 160.574 22.2986 160.568 22.8539V25.1512C160.568 25.8469 160.696 26.4479 160.954 26.9544C161.217 27.4608 161.588 27.8513 162.066 28.1259C162.543 28.4005 163.11 28.5378 163.766 28.5378C164.201 28.5378 164.599 28.4768 164.96 28.3547C165.322 28.2327 165.631 28.0497 165.888 27.8056C166.04 27.6619 166.17 27.4991 166.279 27.3173C166.418 27.0857 166.66 26.9207 166.93 26.9384L169.388 27.1C169.762 27.1246 170.031 27.4769 169.904 27.8296C169.694 28.4168 169.382 28.9457 168.967 29.4165C168.403 30.0572 167.674 30.5575 166.78 30.9176C165.891 31.2715 164.865 31.4484 163.701 31.4484Z" fill="black"/>
<path d="M179.628 17.115C179.967 17.115 180.243 17.3904 180.243 17.7301V19.4288C180.243 19.7685 179.967 20.0439 179.628 20.0439H172.357C172.018 20.0439 171.742 19.7685 171.742 19.4288V17.7301C171.742 17.3904 172.018 17.115 172.357 17.115H179.628ZM173.672 14.3619C173.672 14.0221 173.947 13.7467 174.287 13.7467H176.972C177.311 13.7467 177.587 14.0221 177.587 14.3619V26.8537C177.587 27.2137 177.642 27.4944 177.752 27.6957C177.863 27.891 178.016 28.0283 178.212 28.1076C178.414 28.1869 178.647 28.2266 178.91 28.2266C179.094 28.2266 179.278 28.2114 179.462 28.1808C179.696 28.134 179.924 28.2854 179.974 28.5198L180.384 30.4515C180.45 30.7623 180.267 31.0707 179.958 31.1446C179.87 31.1658 179.775 31.1877 179.673 31.2104C179.318 31.2959 178.886 31.3477 178.377 31.366C177.434 31.4027 176.607 31.2776 175.896 30.9908C175.191 30.704 174.643 30.2585 174.251 29.6545C173.859 29.0504 173.666 28.2876 173.672 27.3662V14.3619Z" fill="black"/>
<path d="M17.4332 12.2646C17.817 12.2646 18.0089 12.2646 18.1555 12.339C18.2844 12.4045 18.3892 12.5089 18.4549 12.6373C18.5296 12.7833 18.5296 12.9745 18.5296 13.3567V30.0465C18.5296 30.4287 18.5296 30.6198 18.4549 30.7659C18.3892 30.8943 18.2844 30.9987 18.1555 31.0641C18.0089 31.1385 17.817 31.1385 17.4332 31.1385H14.6325C14.443 31.1385 14.3483 31.1385 14.2606 31.1149C14.1828 31.094 14.1094 31.0597 14.0436 31.0134C13.9694 30.9611 13.909 30.8885 13.7881 30.7431L6.33416 21.7815C6.15493 21.566 6.06532 21.4583 5.987 21.447C5.91918 21.4372 5.85092 21.4617 5.80496 21.5123C5.7519 21.5708 5.7519 21.7107 5.7519 21.9905V30.0465C5.7519 30.4287 5.7519 30.6198 5.6772 30.7659C5.6115 30.8943 5.50666 30.9987 5.37772 31.0641C5.23112 31.1385 5.03922 31.1385 4.65542 31.1385H1.59651C1.21271 31.1385 1.02081 31.1385 0.874211 31.0641C0.745264 30.9987 0.640426 30.8943 0.574724 30.7659C0.500031 30.6198 0.500031 30.4287 0.500031 30.0465V13.3567C0.500031 12.9745 0.500031 12.7833 0.574724 12.6373C0.640426 12.5089 0.745264 12.4045 0.874211 12.339C1.02081 12.2646 1.21271 12.2646 1.59651 12.2646H4.39717C4.58664 12.2646 4.68137 12.2646 4.76911 12.2882C4.84685 12.3091 4.92028 12.3435 4.98603 12.3898C5.06025 12.4421 5.12068 12.5147 5.24155 12.66L12.6955 21.6217C12.8747 21.8372 12.9643 21.9449 13.0427 21.9562C13.1105 21.966 13.1787 21.9415 13.2247 21.8909C13.2778 21.8324 13.2778 21.6925 13.2778 21.4127V13.3567C13.2778 12.9745 13.2778 12.7833 13.3525 12.6373C13.4182 12.5089 13.523 12.4045 13.6519 12.339C13.7985 12.2646 13.9904 12.2646 14.3742 12.2646H17.4332Z" fill="black"/>
<path d="M27.7077 16.3899C27.5926 16.3899 27.535 16.3899 27.491 16.4123C27.4524 16.4319 27.4209 16.4632 27.4012 16.5017C27.3788 16.5455 27.3788 16.6029 27.3788 16.7176V20.2146C27.3788 20.3292 27.3788 20.3866 27.4012 20.4304C27.4209 20.4689 27.4524 20.5002 27.491 20.5199C27.535 20.5422 27.5926 20.5422 27.7077 20.5422H34.6474C35.0312 20.5422 35.2231 20.5422 35.3697 20.6166C35.4986 20.682 35.6035 20.7864 35.6692 20.9149C35.7439 21.0609 35.7439 21.252 35.7439 21.6343V23.5754C35.7439 23.9577 35.7439 24.1488 35.6692 24.2948C35.6035 24.4232 35.4986 24.5277 35.3697 24.5931C35.2231 24.6675 35.0312 24.6675 34.6474 24.6675H27.7077C27.5926 24.6675 27.535 24.6675 27.491 24.6898C27.4524 24.7094 27.4209 24.7408 27.4012 24.7793C27.3788 24.8231 27.3788 24.8804 27.3788 24.9951V30.0465C27.3788 30.4287 27.3788 30.6198 27.3041 30.7659C27.2384 30.8943 27.1336 30.9987 27.0046 31.0641C26.858 31.1385 26.6661 31.1385 26.2823 31.1385H23.1151C22.7313 31.1385 22.5394 31.1385 22.3928 31.0641C22.2639 30.9987 22.159 30.8943 22.0933 30.7659C22.0186 30.6198 22.0186 30.4287 22.0186 30.0465V13.3567C22.0186 12.9745 22.0186 12.7833 22.0933 12.6373C22.159 12.5089 22.2639 12.4045 22.3928 12.339C22.5394 12.2646 22.7313 12.2646 23.1151 12.2646H35.7844C36.1682 12.2646 36.3601 12.2646 36.5067 12.339C36.6357 12.4045 36.7405 12.5089 36.8062 12.6373C36.8809 12.7833 36.8809 12.9745 36.8809 13.3567V15.2979C36.8809 15.6801 36.8809 15.8713 36.8062 16.0173C36.7405 16.1457 36.6357 16.2501 36.5067 16.3155C36.3601 16.3899 36.1682 16.3899 35.7844 16.3899H27.7077Z" fill="black"/>
<path fill-rule="evenodd" clip-rule="evenodd" d="M58.3837 3.04196C58.9482 2.98201 59.357 2.47762 59.2968 1.91536C59.2367 1.35311 58.7302 0.945909 58.1657 1.00585L56.0664 1.22878C54.9909 1.34299 54.1282 1.43459 53.4276 1.5611C52.7059 1.69143 52.0873 1.86959 51.5128 2.19026C50.5801 2.7109 49.8068 3.47383 49.2757 4.39775C48.9485 4.96691 48.7642 5.58111 48.6273 6.29825C48.4944 6.99429 48.3952 7.8518 48.2716 8.92072L48.2663 8.96676L48.0602 11.0086C48.0034 11.5712 48.4152 12.0731 48.9801 12.1297C49.545 12.1862 50.0489 11.776 50.1057 11.2134L50.3104 9.18634C50.439 8.07375 50.53 7.29306 50.6469 6.68087C50.7617 6.08007 50.8897 5.71095 51.0598 5.4152C51.4058 4.81329 51.9097 4.31599 52.5179 3.97652C52.8169 3.80963 53.1893 3.68516 53.7944 3.5759C54.4122 3.46433 55.1999 3.38004 56.3232 3.26076L58.3837 3.04196ZM78.3842 1.91536C78.324 2.47762 78.7329 2.98201 79.2974 3.04196L81.3579 3.26076C82.4812 3.38004 83.2689 3.46433 83.8867 3.5759C84.4918 3.68516 84.8642 3.80963 85.1632 3.97652C85.7714 4.31599 86.2753 4.81329 86.6213 5.4152C86.7913 5.71095 86.9194 6.08007 87.0341 6.68087C87.1511 7.29306 87.2421 8.07375 87.3707 9.18634L87.5754 11.2134C87.6322 11.776 88.1361 12.1862 88.701 12.1297C89.2658 12.0731 89.6777 11.5712 89.6209 11.0086L89.4148 8.96676L89.4095 8.92072L89.4094 8.92038L89.4094 8.92002C89.2858 7.85143 89.1867 6.99414 89.0538 6.29825C88.9168 5.58111 88.7326 4.96691 88.4054 4.39775C87.8743 3.47383 87.101 2.7109 86.1683 2.19026C85.5938 1.86959 84.9752 1.69143 84.2535 1.5611C83.5529 1.43459 82.6902 1.34299 81.6147 1.22878L79.5153 1.00585C78.9508 0.945909 78.4444 1.35311 78.3842 1.91536ZM78.3842 41.488C78.3241 40.9257 78.7329 40.4213 79.2974 40.3614L81.3579 40.1426C82.4812 40.0233 83.2689 39.939 83.8867 39.8274C84.4918 39.7182 84.8642 39.5937 85.1632 39.4268C85.7714 39.0873 86.2753 38.59 86.6213 37.9881C86.7914 37.6924 86.9194 37.3233 87.0342 36.7224C87.1511 36.1103 87.2421 35.3296 87.3707 34.217L87.5754 32.1899C87.6322 31.6273 88.1361 31.2171 88.701 31.2736C89.2659 31.3302 89.6777 31.8322 89.6209 32.3948L89.4148 34.4366L89.4095 34.4826L89.4094 34.483C89.2859 35.5517 89.1867 36.4091 89.0538 37.1051C88.9169 37.8222 88.7326 38.4364 88.4054 39.0056C87.8743 39.9295 87.101 40.6924 86.1683 41.2131C85.5938 41.5337 84.9752 41.7119 84.2535 41.8422C83.5531 41.9687 82.6907 42.0603 81.6155 42.1744L81.6151 42.1745L81.6149 42.1745L81.6148 42.1745L81.6147 42.1745L79.5154 42.3975C78.9508 42.4574 78.4444 42.0502 78.3842 41.488ZM59.2968 41.488C59.357 40.9257 58.9482 40.4213 58.3837 40.3614L56.3232 40.1426C55.1999 40.0233 54.4122 39.939 53.7944 39.8274C53.1893 39.7182 52.8169 39.5937 52.5179 39.4268C51.9097 39.0873 51.4058 38.59 51.0598 37.9881C50.8897 37.6924 50.7617 37.3233 50.6469 36.7224C50.53 36.1103 50.439 35.3296 50.3104 34.217L50.1057 32.1899C50.0489 31.6273 49.545 31.2171 48.9801 31.2736C48.4152 31.3302 48.0034 31.8322 48.0602 32.3948L48.2663 34.4366L48.2716 34.4826C48.3952 35.5515 48.4944 36.409 48.6273 37.1051C48.7642 37.8222 48.9485 38.4364 49.2757 39.0056C49.8068 39.9295 50.5801 40.6924 51.5128 41.2131C52.0873 41.5337 52.7059 41.7119 53.4276 41.8422C54.1281 41.9687 54.9907 42.0603 56.0661 42.1745L56.0663 42.1745L56.0664 42.1745L58.1657 42.3975C58.7302 42.4574 59.2367 42.0502 59.2968 41.488ZM58.5327 13.8066C58.1557 13.8066 57.8501 14.1122 57.8501 14.4892V29.2138C57.8501 29.5908 58.1557 29.8964 58.5327 29.8964H61.737C62.114 29.8964 62.4196 29.5908 62.4196 29.2138V14.4892C62.4196 14.1122 62.114 13.8066 61.737 13.8066H58.5327ZM66.1042 13.8066C65.7273 13.8066 65.4217 14.1122 65.4217 14.4892V29.2138C65.4217 29.5908 65.7273 29.8964 66.1042 29.8964H73.0605C74.8298 29.8964 76.3992 29.5669 77.7685 28.908C79.1378 28.2491 80.1994 27.3144 80.9532 26.1038C81.7071 24.8932 82.0841 23.4758 82.0841 21.8515C82.0841 20.2272 81.7071 18.8098 80.9532 17.5992C80.1994 16.3886 79.1378 15.4539 77.7685 14.795C76.3992 14.1361 74.8298 13.8066 73.0605 13.8066H66.1042ZM76.1991 25.0924C75.3683 25.8739 74.2606 26.2647 72.8759 26.2647H70.1959C70.0828 26.2647 69.9911 26.173 69.9911 26.0599V17.6431C69.9911 17.53 70.0828 17.4383 70.1959 17.4383H72.8759C74.2606 17.4383 75.3683 17.8291 76.1991 18.6106C77.0453 19.3921 77.4684 20.4724 77.4684 21.8515C77.4684 23.2306 77.0453 24.3109 76.1991 25.0924Z" fill="url(#paint0_linear_47068_39296)"/>
<defs>
<linearGradient id="paint0_linear_47068_39296" x1="58.0481" y1="14.7788" x2="72.2398" y2="35.4898" gradientUnits="userSpaceOnUse">
<stop stop-color="#CC5CDC"/>
<stop offset="0.244792" stop-color="#7B66FF"/>
<stop offset="0.520833" stop-color="#1F8AF0"/>
<stop offset="0.760417" stop-color="#00D1FF"/>
<stop offset="1" stop-color="#3DEDD7"/>
</linearGradient>
</defs>
</svg>
