<svg width="42" height="42" viewBox="0 0 42 42" fill="none" xmlns="http://www.w3.org/2000/svg">
<mask id="mask0_764_64" style="mask-type:luminance" maskUnits="userSpaceOnUse" x="0" y="0" width="42" height="42">
<path d="M42 21C42 9.40202 32.598 0 21 0C9.40202 0 0 9.40202 0 21C0 32.598 9.40202 42 21 42C32.598 42 42 32.598 42 21Z" fill="white"/>
</mask>
<g mask="url(#mask0_764_64)">
<path d="M42 0H0V42H42V0Z" fill="#AB9FF2"/>
<path fill-rule="evenodd" clip-rule="evenodd" d="M18.2765 26.7683C16.6274 29.2953 13.864 32.4931 10.187 32.4931C8.44873 32.4931 6.77734 31.7775 6.77734 28.6691C6.77734 20.7528 17.5856 8.49829 27.614 8.49829C33.319 8.49829 35.5921 12.4564 35.5921 16.9512C35.5921 22.7207 31.8481 29.3176 28.1265 29.3176C26.9454 29.3176 26.366 28.6691 26.366 27.6405C26.366 27.3721 26.4106 27.0814 26.4997 26.7683C25.2294 28.9375 22.7781 30.9501 20.4827 30.9501C18.8113 30.9501 17.9645 29.899 17.9645 28.4231C17.9645 27.8864 18.0759 27.3274 18.2765 26.7683ZM26.9151 16.7954C26.9151 18.1051 26.1423 18.76 25.2779 18.76C24.4003 18.76 23.6407 18.1051 23.6407 16.7954C23.6407 15.4856 24.4003 14.8307 25.2779 14.8307C26.1423 14.8307 26.9151 15.4856 26.9151 16.7954ZM31.8267 16.7954C31.8267 18.1052 31.0539 18.76 30.1895 18.76C29.312 18.76 28.5523 18.1052 28.5523 16.7954C28.5523 15.4856 29.312 14.8308 30.1895 14.8308C31.0539 14.8308 31.8267 15.4856 31.8267 16.7954Z" fill="#FFFDF8"/>
</g>
</svg>
