<svg width="384" height="192" viewBox="0 0 384 192" fill="none" xmlns="http://www.w3.org/2000/svg">
<path d="M189.112 53.7169C188.872 53.2149 188.752 53.2431 188.752 53.8014V81.5798C188.752 81.9026 188.595 82.0639 188.28 82.0639L171.824 82.1408C171.524 82.1459 171.374 81.9948 171.374 81.6874V59.0651C171.374 58.6963 171.472 58.3556 171.667 58.0431C179.167 45.9482 183.435 26.6608 171.652 15.2728C171.347 14.9808 171.247 14.6299 171.352 14.2201C171.378 14.1164 171.438 14.0243 171.522 13.9577C171.606 13.8912 171.709 13.8538 171.817 13.8513C178.037 13.7693 184.365 13.7796 190.8 13.882C200.783 14.0357 212.281 17.0172 216.061 27.8135C219.338 37.1651 217.306 48.3918 207.383 52.3338C207.068 52.4567 206.986 52.6719 207.136 52.9792L221.116 81.9948C221.251 82.2765 221.166 82.4149 220.861 82.4097L202.815 82.1024C202.565 82.0972 202.388 81.9794 202.283 81.7489L189.112 53.7169ZM188.767 29.0583L188.737 45.733C188.737 45.7572 188.742 45.7812 188.751 45.8036C188.76 45.826 188.773 45.8463 188.79 45.8634C188.807 45.8806 188.827 45.8942 188.849 45.9034C188.87 45.9127 188.894 45.9175 188.917 45.9175H191.7C192.781 45.9196 193.851 45.7143 194.85 45.3134C195.849 44.9126 196.757 44.3239 197.523 43.5811C198.288 42.8383 198.896 41.9559 199.311 40.9842C199.726 40.0126 199.941 38.9707 199.943 37.9182V36.9039C199.947 34.7784 199.084 32.7383 197.543 31.2324C196.003 29.7265 193.912 28.8781 191.73 28.8739H188.947C188.9 28.8739 188.854 28.8933 188.82 28.9279C188.786 28.9625 188.767 29.0094 188.767 29.0583Z" fill="url(#paint0_linear_687_144)"/>
<path d="M244.847 64.9352L268.908 66.9331C268.943 66.9361 268.976 66.947 269.006 66.965C269.036 66.983 269.062 67.0077 269.081 67.0371C269.1 67.0666 269.113 67.1002 269.118 67.1353C269.123 67.1705 269.121 67.2064 269.111 67.2404L264.13 84.0535C264.06 84.284 263.91 84.3941 263.68 84.3839L227.379 82.532C227.229 82.5269 227.154 82.4475 227.154 82.2938C227.084 65.8291 227.092 50.0765 227.177 35.0359C227.229 26.9521 225.587 19.8519 219.391 14.496C219.016 14.1733 219.074 14.0196 219.564 14.035L243.707 14.934C244.167 14.9494 244.397 15.1953 244.397 15.6717L244.435 64.4741C244.435 64.7559 244.572 64.9095 244.847 64.9352Z" fill="url(#paint1_linear_687_144)"/>
<path d="M324.471 60.8426C316.978 63.9931 312.853 72.2075 314.428 80.3374C314.478 80.5833 314.403 80.7805 314.203 80.9291C307.798 85.7778 299.922 87.3146 292.145 86.869C286.724 86.5616 281.152 86.0288 275.426 85.2706C275.186 85.2399 275.066 85.1016 275.066 84.8557V17.4575C275.066 17.186 275.199 17.0605 275.464 17.081C284.674 17.7956 294.29 18.7638 302.772 22.2602C317.72 28.4229 325.678 43.799 324.876 60.2509C324.861 60.5377 324.726 60.735 324.471 60.8426ZM306.875 56.3934C306.995 54.9846 306.89 53.5682 306.56 52.144C305.015 45.4537 301.167 41.0404 295.017 38.9042C294.267 38.6429 293.505 38.479 292.73 38.4124C292.46 38.3867 292.325 38.5148 292.325 38.7966V68.5268C292.325 68.8085 292.462 68.9494 292.737 68.9494C300.492 68.8572 306.17 64.5233 306.875 56.3934Z" fill="url(#paint2_linear_687_144)"/>
<path d="M57.0866 60.9417L45.3562 92.7158C45.2662 92.9515 45.1011 93.0924 44.8611 93.1385L32.6357 95.4361C32.6085 95.4416 32.5805 95.4413 32.5535 95.4352C32.5264 95.4292 32.5008 95.4175 32.4783 95.401C32.4558 95.3844 32.4369 95.3633 32.4227 95.3389C32.4085 95.3146 32.3993 95.2875 32.3957 95.2593L23.4029 29.3519C23.3779 29.1624 23.4579 29.0497 23.6429 29.0138L40.061 25.6404C40.371 25.5738 40.5435 25.7019 40.5785 26.0246L43.7211 55.3168C43.7861 55.9623 43.9411 55.9853 44.1861 55.386L57.1541 23.3582C57.1676 23.3271 57.1898 23.3006 57.2177 23.282C57.2457 23.2634 57.2783 23.2536 57.3116 23.2536C57.3449 23.2536 57.3775 23.2634 57.4054 23.282C57.4334 23.3006 57.4555 23.3271 57.4691 23.3582L70.3695 52.2278C70.5145 52.5505 70.6095 52.5351 70.6545 52.1817L74.6522 20.6918C74.6651 20.5951 74.7098 20.5055 74.7791 20.4373C74.8484 20.3691 74.9383 20.3261 75.0347 20.3153L91.3252 18.4864C91.5552 18.4608 91.6552 18.5658 91.6252 18.8015L88.6851 41.8848C88.6451 42.2024 88.5251 42.4842 88.3251 42.7301C80.1273 52.904 76.1897 68.3339 83.645 80.0062C83.8334 80.2982 83.9108 80.6535 83.8625 81.0051L83.0674 87.383C83.0424 87.6135 82.9174 87.7416 82.6924 87.7672L69.8295 89.3425C69.5245 89.3835 69.312 89.258 69.192 88.966L57.5516 60.934C57.5333 60.8869 57.5017 60.8469 57.4607 60.8191C57.4196 60.7913 57.3711 60.7769 57.3212 60.7777C57.2713 60.7785 57.2224 60.7945 57.1806 60.8237C57.1388 60.8529 57.1061 60.894 57.0866 60.9417Z" fill="url(#paint3_linear_687_144)"/>
<path d="M316.969 82.8176C313.054 73.512 319.279 61.8243 329.765 61.6015C335.05 61.4888 339.142 63.8709 342.042 68.7478C342.537 69.5879 342.782 70.4588 342.777 71.3604C342.747 74.7466 342.747 78.1046 342.777 81.4344C342.782 82.3463 342.532 83.2325 342.027 84.0931C335.9 94.4745 321.687 94.0058 316.969 82.8176ZM328.319 83.3863C330.02 83.8014 331.819 83.4766 333.321 82.4833C334.823 81.4899 335.905 79.9095 336.328 78.0895C336.537 77.1884 336.579 76.2556 336.45 75.3444C336.322 74.4332 336.025 73.5614 335.578 72.7788C335.13 71.9963 334.541 71.3183 333.843 70.7835C333.145 70.2487 332.352 69.8677 331.51 69.6621C329.809 69.247 328.01 69.5718 326.508 70.5651C325.006 71.5585 323.924 73.1389 323.501 74.9588C323.292 75.86 323.25 76.7928 323.379 77.704C323.508 78.6152 323.804 79.487 324.251 80.2696C324.699 81.0521 325.288 81.7301 325.986 82.2649C326.684 82.7997 327.477 83.1807 328.319 83.3863Z" fill="url(#paint4_linear_687_144)"/>
<path d="M349.754 84.763L349.769 95.1443C349.768 95.1792 349.76 95.2136 349.745 95.2451C349.73 95.2765 349.709 95.3042 349.683 95.3262C349.656 95.3482 349.625 95.3639 349.592 95.3723C349.559 95.3807 349.525 95.3816 349.491 95.3748L344.443 94.3989C344.39 94.3881 344.342 94.3583 344.307 94.3148C344.273 94.2712 344.255 94.2167 344.256 94.1607V66.1825C344.256 66.1476 344.264 66.1132 344.279 66.0818C344.294 66.0504 344.315 66.0227 344.342 66.0007C344.368 65.9787 344.399 65.9629 344.432 65.9545C344.465 65.9461 344.5 65.9453 344.533 65.952L358.086 68.8566C358.137 68.8687 358.183 68.8981 358.215 68.9399C358.248 68.9817 358.266 69.0336 358.266 69.0872L358.371 75.7033C358.372 75.7388 358.365 75.7741 358.351 75.8065C358.336 75.8389 358.315 75.8675 358.288 75.8904C358.262 75.9132 358.23 75.9297 358.197 75.9385C358.163 75.9474 358.128 75.9484 358.094 75.9415L350.061 74.2279C350.028 74.2211 349.993 74.222 349.96 74.2304C349.927 74.2388 349.896 74.2546 349.87 74.2766C349.843 74.2986 349.822 74.3263 349.807 74.3577C349.792 74.3891 349.784 74.4235 349.784 74.4584L349.769 77.8625C349.769 77.9151 349.785 77.9662 349.817 78.0079C349.848 78.0495 349.892 78.0795 349.941 78.0931L355.146 79.5838C355.196 79.5974 355.24 79.6273 355.271 79.669C355.302 79.7107 355.319 79.7618 355.319 79.8143V85.662C355.319 85.6986 355.311 85.7346 355.295 85.7675C355.279 85.8003 355.256 85.8289 355.228 85.8512C355.2 85.8735 355.167 85.8888 355.132 85.896C355.097 85.9031 355.061 85.902 355.026 85.8925L350.046 84.5324C350.012 84.523 349.976 84.5218 349.941 84.529C349.906 84.5361 349.873 84.5515 349.844 84.5738C349.816 84.596 349.793 84.6247 349.777 84.6575C349.762 84.6903 349.754 84.7264 349.754 84.763Z" fill="url(#paint5_linear_687_144)"/>
<path d="M85.5633 144.304C85.3083 144.002 85.1808 144.051 85.1808 144.45L85.2408 178.568C85.2408 178.865 85.0958 179.032 84.8058 179.067L65.5301 181.457C65.2151 181.498 65.0576 181.355 65.0576 181.027V92.405C65.0576 92.2052 65.1276 92.1771 65.2676 92.3205C70.0628 97.2538 74.8555 102.251 79.6456 107.312C86.8384 114.904 94.7962 121.912 102.536 129.005C102.562 129.03 102.594 129.047 102.629 129.053C102.664 129.059 102.701 129.054 102.733 129.039C102.766 129.023 102.794 128.998 102.814 128.966C102.834 128.934 102.844 128.897 102.844 128.859L102.851 91.2908C102.851 90.9373 103.021 90.7837 103.361 90.8298C109.717 91.6597 116.107 91.4086 122.532 90.0767C122.852 90.0101 123.012 90.1433 123.012 90.4763V184.8C123.012 185.107 122.905 185.156 122.69 184.946C118.752 181.158 114.769 177.584 111.072 173.443C102.411 163.735 93.9086 154.022 85.5633 144.304Z" fill="url(#paint6_linear_687_144)"/>
<path d="M221.838 115.574L221.83 122.728C221.83 122.99 221.958 123.125 222.213 123.136L239.201 123.85C239.287 123.852 239.369 123.889 239.43 123.952C239.49 124.015 239.524 124.1 239.524 124.188L239.531 143.453C239.531 143.632 239.444 143.724 239.269 143.729L221.965 144.344C221.88 144.349 221.838 144.395 221.838 144.482V151.49C221.838 151.582 221.883 151.631 221.973 151.636L250.286 152.989C250.316 152.99 250.345 152.998 250.371 153.012C250.397 153.026 250.419 153.046 250.436 153.071C250.454 153.095 250.465 153.123 250.471 153.153C250.476 153.183 250.474 153.213 250.466 153.242L245.186 174.297C245.111 174.594 244.924 174.732 244.624 174.712C230.188 173.913 215.98 173.434 202 173.275C201.715 173.27 201.572 173.121 201.572 172.829V93.6743C201.572 93.6433 201.578 93.6127 201.59 93.5842C201.602 93.5558 201.619 93.53 201.641 93.5085C201.662 93.487 201.688 93.4702 201.716 93.459C201.745 93.4479 201.775 93.4427 201.805 93.4437L248.389 94.7347C248.679 94.7398 248.846 94.8884 248.891 95.1804L252.132 115.805C252.172 116.051 252.069 116.168 251.824 116.158L222.423 114.998C222.033 114.983 221.838 115.175 221.838 115.574Z" fill="url(#paint7_linear_687_144)"/>
<path d="M156.65 140.535L156.665 173.608C156.665 173.679 156.639 173.747 156.591 173.798C156.544 173.85 156.479 173.881 156.41 173.885L136.662 174.845C136.625 174.847 136.589 174.842 136.554 174.829C136.52 174.816 136.488 174.796 136.461 174.77C136.435 174.744 136.413 174.713 136.399 174.678C136.384 174.644 136.377 174.606 136.377 174.569V95.2369C136.377 95.0576 136.467 94.9628 136.647 94.9526C143.827 94.553 150.922 94.2098 157.933 93.9229C169.843 93.4311 183.996 95.9208 188.639 108.869C192.644 120.049 189.794 133.189 178.318 138.084C178.058 138.197 177.991 138.384 178.116 138.645L194.976 172.886C194.993 172.919 195.002 172.956 195 172.993C194.999 173.03 194.989 173.066 194.97 173.098C194.951 173.129 194.924 173.156 194.893 173.174C194.861 173.192 194.825 173.201 194.789 173.201L173.226 173.378C172.961 173.378 172.771 173.257 172.656 173.016L157.018 140.443C156.773 139.931 156.65 139.962 156.65 140.535ZM156.695 111.458L156.59 131.145C156.589 131.168 156.593 131.191 156.6 131.212C156.608 131.234 156.62 131.253 156.636 131.27C156.651 131.286 156.67 131.299 156.69 131.308C156.711 131.317 156.733 131.322 156.755 131.322L160.033 131.337C161.307 131.345 162.569 131.108 163.749 130.642C164.928 130.175 166.001 129.487 166.906 128.617C167.812 127.747 168.532 126.712 169.026 125.572C169.519 124.432 169.777 123.208 169.783 121.97V120.787C169.796 118.289 168.788 115.887 166.979 114.11C165.17 112.334 162.709 111.327 160.138 111.312L156.86 111.297C156.818 111.297 156.777 111.314 156.746 111.344C156.715 111.374 156.697 111.415 156.695 111.458Z" fill="url(#paint8_linear_687_144)"/>
<path d="M289.968 123.265L279.063 159.181C278.953 159.555 279.088 159.75 279.468 159.765C283.308 159.893 287.441 160.088 291.866 160.349C293.776 160.456 295.041 161.617 295.661 163.83C297.046 168.809 298.466 173.819 299.921 178.86C300.016 179.193 299.894 179.342 299.554 179.306C284.073 177.646 268.552 176.291 252.992 175.241C252.632 175.215 252.512 175.028 252.632 174.68L279.49 97.6227C279.605 97.2949 279.83 97.1489 280.165 97.1847L302.201 99.4285C302.536 99.4644 302.754 99.6462 302.854 99.9741L328.212 182.856C328.22 182.883 328.221 182.912 328.215 182.939C328.209 182.967 328.197 182.992 328.179 183.014C328.161 183.035 328.138 183.051 328.113 183.061C328.087 183.071 328.059 183.075 328.032 183.071L307.136 180.166C307.038 180.153 306.945 180.11 306.869 180.043C306.794 179.977 306.738 179.889 306.709 179.79L290.396 123.273C290.256 122.786 290.113 122.783 289.968 123.265Z" fill="url(#paint9_linear_687_144)"/>
<path d="M384 171.399V171.83L377.835 191.655C377.75 191.932 377.57 192.042 377.295 191.985C363.129 189.137 349.261 186.619 335.691 184.432C335.391 184.381 335.241 184.199 335.241 183.886C335.256 163.293 335.256 142.804 335.241 122.42C335.233 114.459 331.73 108.389 326.21 103.248C325.725 102.797 325.808 102.623 326.458 102.726C335.903 104.186 345.436 105.935 355.056 107.974C355.236 108.01 355.326 108.12 355.326 108.304L355.319 165.375C355.319 165.488 355.358 165.597 355.429 165.684C355.5 165.771 355.599 165.83 355.709 165.851L384 171.399Z" fill="url(#paint10_linear_687_144)"/>
<path d="M0 166.614V115.222L19.6807 109.79C19.9357 109.718 20.0632 109.818 20.0632 110.089C20.0982 125.581 20.0957 141.277 20.0557 157.178C20.0482 161.381 20.4382 168.343 26.1909 167.045C31.9811 165.738 32.0786 158.385 32.0411 153.428C31.9261 138.603 31.8661 123.268 31.8611 107.423C31.8611 107.131 32.0011 106.959 32.2811 106.908L51.6693 103.381C51.9693 103.325 52.1193 103.453 52.1193 103.765C52.1443 120.542 52.1343 136.664 52.0893 152.13C52.0793 155.921 51.8568 159.614 51.4218 163.21C50.3342 172.247 45.4516 180.361 37.5613 184.626C26.4984 190.612 8.07778 193.163 2.25008 178.648C0.985034 175.502 0.235008 171.491 0 166.614Z" fill="url(#paint11_linear_687_144)"/>
<path d="M110.403 45.6541C110.38 53.7613 116.905 56.4898 123.658 55.0278C131.502 53.3339 137.785 49.2035 142.506 42.6364C144.734 39.5405 145.039 34.9123 140.224 34.1853C136.394 33.6067 133.464 34.6231 130.152 36.343C128.084 37.4219 125.909 34.8732 126.794 32.7859C127.064 32.15 127.695 31.4907 128.687 30.8079C134.097 27.0788 143.269 25.0305 148.817 29.2209C156.684 35.1547 153.616 46.0607 148.633 52.6043C143.857 58.8742 137.696 63.393 130.152 66.1605C123.414 68.631 114.356 68.889 108.61 64.7299C100.583 58.9211 99.7432 49.4302 103.528 40.6976C105.777 35.5169 109.427 30.5942 114.478 25.9295C124.97 16.2431 138.652 9.53538 152.83 10.1061C170.084 10.8097 179.828 23.8578 175.944 41.1823C173.792 50.7931 169.262 59.0045 162.354 65.8165C149.458 78.5363 131.693 87.7067 113.501 88.7934C106.863 89.1921 100.026 88.4259 94.0278 85.5411C85.0082 81.1944 80.9181 72.024 82.1543 61.9701C82.8614 56.2266 85.1659 50.6185 89.0678 45.146C89.118 45.0753 89.1823 45.0169 89.2562 44.975C89.3301 44.9331 89.4117 44.9088 89.4951 44.9036C89.8207 44.8828 90.0572 45.0209 90.2047 45.318C90.2963 45.5004 90.3192 45.6906 90.2734 45.8887C88.3276 54.1444 86.0536 63.6588 92.0361 70.8435C105.901 87.5149 136.739 71.455 148.817 61.9701C157.592 55.0826 170.221 36.7183 163.88 24.8116C160.209 17.924 152.518 15.8132 145.223 16.5637C136.3 17.4758 128.3 21.0277 121.224 27.2195C116.02 31.7773 110.419 38.6727 110.403 45.6541Z" fill="url(#paint12_linear_687_144)"/>
<defs>
<linearGradient id="paint0_linear_687_144" x1="196.245" y1="13.7966" x2="196.245" y2="82.41" gradientUnits="userSpaceOnUse">
<stop stop-color="#D5E7E3"/>
<stop offset="1" stop-color="#D3E6E5"/>
</linearGradient>
<linearGradient id="paint1_linear_687_144" x1="244.134" y1="14.0339" x2="244.134" y2="84.3846" gradientUnits="userSpaceOnUse">
<stop stop-color="#D5E7E3"/>
<stop offset="1" stop-color="#D3E6E5"/>
</linearGradient>
<linearGradient id="paint2_linear_687_144" x1="299.999" y1="17.0789" x2="299.999" y2="86.9424" gradientUnits="userSpaceOnUse">
<stop stop-color="#D5E7E3"/>
<stop offset="1" stop-color="#D3E6E5"/>
</linearGradient>
<linearGradient id="paint3_linear_687_144" x1="57.5144" y1="18.4827" x2="57.5144" y2="95.4401" gradientUnits="userSpaceOnUse">
<stop stop-color="#D5E7E3"/>
<stop offset="1" stop-color="#D3E6E5"/>
</linearGradient>
<linearGradient id="paint4_linear_687_144" x1="329.283" y1="61.5977" x2="329.283" y2="91.5572" gradientUnits="userSpaceOnUse">
<stop stop-color="#D5E7E3"/>
<stop offset="1" stop-color="#D3E6E5"/>
</linearGradient>
<linearGradient id="paint5_linear_687_144" x1="351.314" y1="65.9475" x2="351.314" y2="95.3794" gradientUnits="userSpaceOnUse">
<stop stop-color="#D5E7E3"/>
<stop offset="1" stop-color="#D3E6E5"/>
</linearGradient>
<linearGradient id="paint6_linear_687_144" x1="94.0348" y1="90.0601" x2="94.0348" y2="185.074" gradientUnits="userSpaceOnUse">
<stop stop-color="#D5E7E3"/>
<stop offset="1" stop-color="#D3E6E5"/>
</linearGradient>
<linearGradient id="paint7_linear_687_144" x1="226.856" y1="93.4436" x2="226.856" y2="174.714" gradientUnits="userSpaceOnUse">
<stop stop-color="#D5E7E3"/>
<stop offset="1" stop-color="#D3E6E5"/>
</linearGradient>
<linearGradient id="paint8_linear_687_144" x1="165.689" y1="93.8657" x2="165.689" y2="174.846" gradientUnits="userSpaceOnUse">
<stop stop-color="#D5E7E3"/>
<stop offset="1" stop-color="#D3E6E5"/>
</linearGradient>
<linearGradient id="paint9_linear_687_144" x1="290.403" y1="97.1794" x2="290.403" y2="183.073" gradientUnits="userSpaceOnUse">
<stop stop-color="#D5E7E3"/>
<stop offset="1" stop-color="#D3E6E5"/>
</linearGradient>
<linearGradient id="paint10_linear_687_144" x1="354.95" y1="102.697" x2="354.95" y2="192" gradientUnits="userSpaceOnUse">
<stop stop-color="#D5E7E3"/>
<stop offset="1" stop-color="#D3E6E5"/>
</linearGradient>
<linearGradient id="paint11_linear_687_144" x1="26.0663" y1="103.368" x2="26.0663" y2="189.38" gradientUnits="userSpaceOnUse">
<stop stop-color="#D5E7E3"/>
<stop offset="1" stop-color="#D3E6E5"/>
</linearGradient>
<linearGradient id="paint12_linear_687_144" x1="131.902" y1="5.49888" x2="131.902" y2="84.3181" gradientUnits="userSpaceOnUse">
<stop stop-color="#2CC1F0"/>
<stop offset="1" stop-color="#2564C2"/>
</linearGradient>
</defs>
</svg>
