<svg width="54" height="38" viewBox="0 0 54 38" fill="none" xmlns="http://www.w3.org/2000/svg">
<g filter="url(#filter0_i_764_94)">
<path d="M9.49604 13.5271L5.56215 20.8807C5.53222 20.9351 5.4866 20.9641 5.42528 20.9675L2.3033 21.1293C2.29634 21.1298 2.28937 21.1288 2.28281 21.1265C2.27625 21.1241 2.27024 21.1204 2.26516 21.1157C2.26007 21.1109 2.25602 21.1052 2.25325 21.0988C2.25048 21.0924 2.24905 21.0855 2.24905 21.0785L2.09761 4.74203C2.09739 4.69508 2.12092 4.67024 2.1682 4.66753L6.36998 4.3801C6.44941 4.37397 6.48837 4.41075 6.48686 4.49046L6.34112 11.7233C6.33685 11.8826 6.37478 11.8932 6.45491 11.7553L10.7055 4.38024C10.7099 4.3731 10.7162 4.36737 10.7238 4.36376C10.7313 4.36015 10.7398 4.3588 10.7481 4.35989C10.7564 4.36097 10.7642 4.36444 10.7706 4.36987C10.777 4.3753 10.7817 4.38246 10.7841 4.39048L13.0854 11.8377C13.1113 11.921 13.1355 11.9203 13.1579 11.8358L15.1542 4.30002C15.1605 4.2769 15.1745 4.25655 15.1939 4.2422C15.2134 4.22785 15.2372 4.22031 15.2616 4.2208L19.3825 4.30522C19.4407 4.30646 19.4623 4.33527 19.4473 4.39166L17.9816 9.91535C17.9615 9.99137 17.9227 10.0561 17.865 10.1094C15.4976 12.3196 14.0259 15.9477 15.5149 19.0315C15.5526 19.1087 15.5606 19.1977 15.5374 19.2818L15.1367 20.8085C15.1232 20.8638 15.0879 20.8909 15.031 20.8899L11.7729 20.8551C11.6956 20.8552 11.6466 20.8177 11.6259 20.7428L9.61226 13.5404C9.6092 13.5283 9.60258 13.5176 9.59323 13.5095C9.58388 13.5014 9.57223 13.4963 9.55976 13.4948C9.5473 13.4934 9.53458 13.4957 9.52323 13.5015C9.51188 13.5072 9.50241 13.5162 9.49604 13.5271Z" fill="#00A9DE"/>
<path d="M52.9279 4.26543e-05L46.8138 0.290171L45.5888 13.2168C45.4044 13.6341 45.4676 14.4481 44.424 14.4976C43.3805 14.5471 43.7462 13.1 43.7269 12.6924L44.9808 0.377149L38.8945 1.27875L38.85 4.77031C39.0828 5.37204 39.9322 6.82016 40.0285 8.84996C40.1796 12.0334 38.4751 13.9629 37.7276 15.4282C37.7276 15.4282 37.59 16.0554 38.0693 16.9094C39.4092 19.297 40.4066 20.2033 44.6864 20.0002C53.6995 19.5725 52.2498 6.07065 52.9279 4.26543e-05Z" fill="#00A9DE"/>
<path d="M22.0181 22.7064L15.6035 21.1931C16.2134 21.803 16.7554 22.6161 17.3653 23.8358C17.638 24.3812 17.3653 32.3509 17.3653 36.1681C19.6014 36.5746 23.5314 37.3426 23.5314 37.3426C23.5314 37.3426 21.8826 35.5131 21.476 34.6999L22.0181 22.7064Z" fill="#00A9DE"/>
<path d="M25.892 35.9944C24.8439 35.9364 23.7664 35.8358 22.6595 35.6927C22.613 35.6869 22.5898 35.6608 22.5898 35.6144V22.8947C22.5898 22.8435 22.6155 22.8198 22.6667 22.8236C24.4475 22.9585 26.3067 23.1412 27.9469 23.8011C30.8371 24.9641 32.3758 27.866 32.2206 30.9709C32.0414 34.3162 28.9826 36.1672 25.892 35.9944ZM28.7401 30.2429C28.7633 29.977 28.743 29.7097 28.6792 29.4409C28.3805 28.1783 27.6365 27.3454 26.4474 26.9422C26.3024 26.8929 26.1549 26.862 26.0051 26.8494C25.9529 26.8446 25.9268 26.8687 25.9268 26.9219V32.5327C25.9268 32.5859 25.9533 32.6125 26.0065 32.6125C27.506 32.5951 28.6038 31.7772 28.7401 30.2429Z" fill="#00A9DE"/>
<path d="M22.8476 11.5018C22.8421 13.4326 24.396 14.0824 26.0043 13.7342C27.8725 13.3308 29.3688 12.3471 30.4932 10.7831C31.0238 10.0458 31.0965 8.94351 29.9498 8.77035C29.0375 8.63257 28.3396 8.87462 27.5509 9.28425C27.0584 9.54119 26.5404 8.9342 26.7512 8.43707C26.8155 8.28564 26.9657 8.12861 27.2019 7.96601C28.4904 7.07787 30.6749 6.59005 31.9961 7.58804C33.8698 9.00123 33.1392 11.5986 31.9525 13.157C30.8148 14.6503 29.3476 15.7265 27.5509 16.3856C25.9462 16.974 23.789 17.0354 22.4205 16.0449C20.5087 14.6615 20.3087 12.4011 21.2101 10.3213C21.7457 9.0875 22.615 7.91511 23.818 6.80417C26.3169 4.49725 29.5754 2.89972 32.952 3.03564C37.0611 3.20322 39.3818 6.31076 38.4568 10.4368C37.9443 12.7257 36.8654 14.6813 35.2201 16.3037C32.1488 19.333 27.918 21.5171 23.5854 21.7759C22.0043 21.8708 20.376 21.6884 18.9475 21.0013C16.7994 19.9661 15.8253 17.782 16.1198 15.3876C16.2882 14.0197 16.837 12.6841 17.7663 11.3808C17.7782 11.3639 17.7936 11.35 17.8112 11.3401C17.8287 11.3301 17.8482 11.3243 17.868 11.323C17.9456 11.3181 18.0019 11.351 18.0371 11.4217C18.0589 11.4652 18.0643 11.5105 18.0534 11.5576C17.59 13.5238 17.0484 15.7898 18.4732 17.5009C21.7753 21.4714 29.1198 17.6465 31.9961 15.3876C34.0861 13.7473 37.0938 9.37362 35.5836 6.53791C34.7094 4.89756 32.8775 4.39484 31.1401 4.57359C29.0151 4.79081 27.1099 5.63675 25.4246 7.11139C24.1851 8.19689 22.8512 9.8391 22.8476 11.5018Z" fill="#00A9DE"/>
</g>
<defs>
<filter id="filter0_i_764_94" x="2.09766" y="0" width="50.8301" height="37.3425" filterUnits="userSpaceOnUse" color-interpolation-filters="sRGB">
<feFlood flood-opacity="0" result="BackgroundImageFix"/>
<feBlend mode="normal" in="SourceGraphic" in2="BackgroundImageFix" result="shape"/>
<feColorMatrix in="SourceAlpha" type="matrix" values="0 0 0 0 0 0 0 0 0 0 0 0 0 0 0 0 0 0 127 0" result="hardAlpha"/>
<feOffset/>
<feGaussianBlur stdDeviation="2.00288"/>
<feComposite in2="hardAlpha" operator="arithmetic" k2="-1" k3="1"/>
<feColorMatrix type="matrix" values="0 0 0 0 0.58 0 0 0 0 1 0 0 0 0 1 0 0 0 1 0"/>
<feBlend mode="normal" in2="shape" result="effect1_innerShadow_764_94"/>
</filter>
</defs>
</svg>
